<svg width="500" height="500" viewBox="0 0 500 500" fill="none" xmlns="http://www.w3.org/2000/svg">
<g clip-path="url(#clip0_1640_18589)">
<path d="M315.322 350.396C331.422 339.952 315.231 286.404 279.158 230.792C243.085 175.181 200.79 138.565 184.69 149.009C168.59 159.453 184.781 213.001 220.854 268.612C256.927 324.224 299.222 360.839 315.322 350.396Z" stroke="url(#paint0_linear_1640_18589)" stroke-width="1.05" stroke-miterlimit="10"/>
<path d="M316.532 359.559C335.112 348.306 320.391 290.004 283.65 229.338C246.909 168.671 202.062 128.614 183.481 139.867C164.901 151.12 179.622 209.422 216.363 270.088C253.104 330.754 297.951 370.812 316.532 359.559Z" stroke="url(#paint1_linear_1640_18589)" stroke-width="1.15" stroke-miterlimit="10"/>
<path d="M317.196 369.128C338.69 357.032 326.03 293.77 288.919 227.829C251.809 161.888 204.301 118.238 182.807 130.334C161.314 142.431 173.974 205.692 211.084 271.633C248.194 337.574 295.702 381.224 317.196 369.128Z" stroke="url(#paint2_linear_1640_18589)" stroke-width="1.27" stroke-miterlimit="10"/>
<path d="M317.241 379.044C342.157 366.085 332.247 297.691 295.106 226.283C257.964 154.874 207.657 107.492 182.741 120.451C157.825 133.411 167.735 201.805 204.876 273.213C242.017 344.621 292.325 392.004 317.241 379.044Z" stroke="url(#paint3_linear_1640_18589)" stroke-width="1.39" stroke-miterlimit="10"/>
<path d="M316.629 389.228C345.566 375.407 339.195 301.748 302.398 224.705C265.601 147.663 212.313 96.4115 183.376 110.232C154.439 124.053 160.81 197.713 197.607 274.755C234.404 351.798 287.692 403.049 316.629 389.228Z" stroke="url(#paint4_linear_1640_18589)" stroke-width="1.53" stroke-miterlimit="10"/>
<path d="M315.245 399.688C348.914 385.041 347 306.025 310.969 223.2C274.939 140.375 218.436 85.1054 184.767 99.7522C151.097 114.399 153.011 193.416 189.042 276.241C225.072 359.066 281.575 414.335 315.245 399.688Z" stroke="url(#paint5_linear_1640_18589)" stroke-width="1.69" stroke-miterlimit="10"/>
<path d="M313.027 410.333C352.268 394.939 355.867 310.545 321.065 221.834C286.264 133.122 226.241 73.6865 187 89.0805C147.76 104.474 144.161 188.869 178.963 277.58C213.764 366.292 273.787 425.727 313.027 410.333Z" stroke="url(#paint6_linear_1640_18589)" stroke-width="1.86" stroke-miterlimit="10"/>
<path d="M308.979 419.345C354.577 403.338 364.712 313.936 331.616 219.662C298.52 125.388 234.725 61.9401 189.127 77.948C143.528 93.956 133.393 183.357 166.49 277.632C199.586 371.906 263.381 435.353 308.979 419.345Z" stroke="url(#paint7_linear_1640_18589)" stroke-width="2.0423" stroke-miterlimit="10"/>
<path d="M305.818 432.038C359.329 415.658 377.721 320.75 346.898 220.055C316.074 119.361 247.707 51.0114 194.195 67.3919C140.683 83.7725 122.291 178.68 153.115 279.375C183.939 380.069 252.306 448.419 305.818 432.038Z" stroke="url(#paint8_linear_1640_18589)" stroke-width="2.25" stroke-miterlimit="10"/>
<path d="M300.774 442.927C363.344 426.489 391.34 326.657 363.305 219.946C335.27 113.236 261.821 40.0553 199.251 56.4936C136.681 72.9318 108.685 172.764 136.72 279.474C164.754 386.185 238.204 459.366 300.774 442.927Z" stroke="url(#paint9_linear_1640_18589)" stroke-width="2.48" stroke-miterlimit="10"/>
<path d="M294.674 453.861C367.865 437.836 407.19 333.467 382.51 220.747C357.83 108.027 278.491 29.6407 205.3 45.6657C132.11 61.6907 92.7844 166.059 117.464 278.779C142.144 391.499 221.484 469.886 294.674 453.861Z" stroke="url(#paint10_linear_1640_18589)" stroke-width="2.73" stroke-miterlimit="10"/>
<path d="M287.658 464.636C373.266 449.634 425.804 341.26 405.005 222.577C384.206 103.893 297.946 19.8434 212.338 34.8459C126.731 49.8484 74.1929 158.222 94.9919 276.906C115.791 395.589 202.05 479.639 287.658 464.636Z" stroke="url(#paint11_linear_1640_18589)" stroke-width="3" stroke-miterlimit="10"/>
<path d="M279.147 474.688C379.073 461.567 446.836 350.077 430.5 225.668C414.163 101.26 319.914 11.0446 219.987 24.1662C120.061 37.2879 52.298 148.778 68.6344 273.186C84.9709 397.594 179.22 487.81 279.147 474.688Z" stroke="url(#paint12_linear_1640_18589)" stroke-width="3.29505" stroke-miterlimit="10"/>
<path d="M270.672 485.949C387.542 475.724 473.031 361.677 461.617 231.218C450.204 100.758 346.209 3.28881 229.339 13.5136C112.469 23.7384 26.9802 137.785 38.3939 268.245C49.8076 398.704 153.802 496.174 270.672 485.949Z" stroke="url(#paint13_linear_1640_18589)" stroke-width="3.63" stroke-miterlimit="10"/>
<path d="M250 496.734C386.414 496.734 497 386.148 497 249.734C497 113.319 386.414 2.73376 250 2.73376C113.586 2.73376 3 113.319 3 249.734C3 386.148 113.586 496.734 250 496.734Z" stroke="url(#paint14_linear_1640_18589)" stroke-width="4" stroke-miterlimit="10"/>
</g>
<defs>
<linearGradient id="paint0_linear_1640_18589" x1="261.852" y1="311.581" x2="318.825" y2="259.891" gradientUnits="userSpaceOnUse">
<stop/>
<stop offset="0.05" stop-color="#003F3D"/>
<stop offset="0.14" stop-color="#009C96"/>
<stop offset="0.2" stop-color="#00D7CE"/>
<stop offset="0.23" stop-color="#00C1B9"/>
<stop offset="0.24" stop-color="#00948E"/>
<stop offset="0.25" stop-color="#006C68"/>
<stop offset="0.26" stop-color="#004B48"/>
<stop offset="0.27" stop-color="#002F2D"/>
<stop offset="0.28" stop-color="#001A19"/>
<stop offset="0.29" stop-color="#000B0B"/>
<stop offset="0.3" stop-color="#000303"/>
<stop offset="0.32"/>
<stop offset="0.58" stop-color="#5E1717"/>
<stop offset="0.87" stop-color="#C12E2E"/>
<stop offset="1" stop-color="#E83838"/>
</linearGradient>
<linearGradient id="paint1_linear_1640_18589" x1="251.892" y1="320.134" x2="317.579" y2="265.655" gradientUnits="userSpaceOnUse">
<stop/>
<stop offset="0.05" stop-color="#003F3D"/>
<stop offset="0.14" stop-color="#009C96"/>
<stop offset="0.2" stop-color="#00D7CE"/>
<stop offset="0.23" stop-color="#00C1B9"/>
<stop offset="0.24" stop-color="#00948E"/>
<stop offset="0.25" stop-color="#006C68"/>
<stop offset="0.26" stop-color="#004B48"/>
<stop offset="0.27" stop-color="#002F2D"/>
<stop offset="0.28" stop-color="#001A19"/>
<stop offset="0.29" stop-color="#000B0B"/>
<stop offset="0.3" stop-color="#000303"/>
<stop offset="0.32"/>
<stop offset="0.58" stop-color="#5E1717"/>
<stop offset="0.87" stop-color="#C12E2E"/>
<stop offset="1" stop-color="#E83838"/>
</linearGradient>
<linearGradient id="paint2_linear_1640_18589" x1="241.265" y1="326.192" x2="316.148" y2="269.383" gradientUnits="userSpaceOnUse">
<stop/>
<stop offset="0.05" stop-color="#003F3D"/>
<stop offset="0.14" stop-color="#009C96"/>
<stop offset="0.2" stop-color="#00D7CE"/>
<stop offset="0.23" stop-color="#00C1B9"/>
<stop offset="0.24" stop-color="#00948E"/>
<stop offset="0.25" stop-color="#006C68"/>
<stop offset="0.26" stop-color="#004B48"/>
<stop offset="0.27" stop-color="#002F2D"/>
<stop offset="0.28" stop-color="#001A19"/>
<stop offset="0.29" stop-color="#000B0B"/>
<stop offset="0.3" stop-color="#000303"/>
<stop offset="0.32"/>
<stop offset="0.58" stop-color="#5E1717"/>
<stop offset="0.87" stop-color="#C12E2E"/>
<stop offset="1" stop-color="#E83838"/>
</linearGradient>
<linearGradient id="paint3_linear_1640_18589" x1="237.816" y1="325.445" x2="326.71" y2="261.437" gradientUnits="userSpaceOnUse">
<stop/>
<stop offset="0.05" stop-color="#003F3D"/>
<stop offset="0.14" stop-color="#009C96"/>
<stop offset="0.2" stop-color="#00D7CE"/>
<stop offset="0.23" stop-color="#00C1B9"/>
<stop offset="0.24" stop-color="#00948E"/>
<stop offset="0.25" stop-color="#006C68"/>
<stop offset="0.26" stop-color="#004B48"/>
<stop offset="0.27" stop-color="#002F2D"/>
<stop offset="0.28" stop-color="#001A19"/>
<stop offset="0.29" stop-color="#000B0B"/>
<stop offset="0.3" stop-color="#000303"/>
<stop offset="0.32"/>
<stop offset="0.58" stop-color="#5E1717"/>
<stop offset="0.87" stop-color="#C12E2E"/>
<stop offset="1" stop-color="#E83838"/>
</linearGradient>
<linearGradient id="paint4_linear_1640_18589" x1="223.707" y1="326.791" x2="326.295" y2="259.527" gradientUnits="userSpaceOnUse">
<stop/>
<stop offset="0.05" stop-color="#003F3D"/>
<stop offset="0.14" stop-color="#009C96"/>
<stop offset="0.2" stop-color="#00D7CE"/>
<stop offset="0.23" stop-color="#00C1B9"/>
<stop offset="0.24" stop-color="#00948E"/>
<stop offset="0.25" stop-color="#006C68"/>
<stop offset="0.26" stop-color="#004B48"/>
<stop offset="0.27" stop-color="#002F2D"/>
<stop offset="0.28" stop-color="#001A19"/>
<stop offset="0.29" stop-color="#000B0B"/>
<stop offset="0.3" stop-color="#000303"/>
<stop offset="0.32"/>
<stop offset="0.58" stop-color="#5E1717"/>
<stop offset="0.87" stop-color="#C12E2E"/>
<stop offset="1" stop-color="#E83838"/>
</linearGradient>
<linearGradient id="paint5_linear_1640_18589" x1="217.298" y1="322.855" x2="338.447" y2="248.207" gradientUnits="userSpaceOnUse">
<stop/>
<stop offset="0.05" stop-color="#003F3D"/>
<stop offset="0.14" stop-color="#009C96"/>
<stop offset="0.2" stop-color="#00D7CE"/>
<stop offset="0.23" stop-color="#00C1B9"/>
<stop offset="0.24" stop-color="#00948E"/>
<stop offset="0.25" stop-color="#006C68"/>
<stop offset="0.26" stop-color="#004B48"/>
<stop offset="0.27" stop-color="#002F2D"/>
<stop offset="0.28" stop-color="#001A19"/>
<stop offset="0.29" stop-color="#000B0B"/>
<stop offset="0.3" stop-color="#000303"/>
<stop offset="0.32"/>
<stop offset="0.58" stop-color="#5E1717"/>
<stop offset="0.87" stop-color="#C12E2E"/>
<stop offset="1" stop-color="#E83838"/>
</linearGradient>
<linearGradient id="paint6_linear_1640_18589" x1="201.555" y1="321.122" x2="341.946" y2="243.076" gradientUnits="userSpaceOnUse">
<stop/>
<stop offset="0.05" stop-color="#003F3D"/>
<stop offset="0.14" stop-color="#009C96"/>
<stop offset="0.2" stop-color="#00D7CE"/>
<stop offset="0.23" stop-color="#00C1B9"/>
<stop offset="0.24" stop-color="#00948E"/>
<stop offset="0.25" stop-color="#006C68"/>
<stop offset="0.26" stop-color="#004B48"/>
<stop offset="0.27" stop-color="#002F2D"/>
<stop offset="0.28" stop-color="#001A19"/>
<stop offset="0.29" stop-color="#000B0B"/>
<stop offset="0.3" stop-color="#000303"/>
<stop offset="0.32"/>
<stop offset="0.58" stop-color="#5E1717"/>
<stop offset="0.87" stop-color="#C12E2E"/>
<stop offset="1" stop-color="#E83838"/>
</linearGradient>
<linearGradient id="paint7_linear_1640_18589" x1="184.396" y1="316.778" x2="343.477" y2="237.225" gradientUnits="userSpaceOnUse">
<stop/>
<stop offset="0.05" stop-color="#003F3D"/>
<stop offset="0.14" stop-color="#009C96"/>
<stop offset="0.2" stop-color="#00D7CE"/>
<stop offset="0.23" stop-color="#00C1B9"/>
<stop offset="0.24" stop-color="#00948E"/>
<stop offset="0.25" stop-color="#006C68"/>
<stop offset="0.26" stop-color="#004B48"/>
<stop offset="0.27" stop-color="#002F2D"/>
<stop offset="0.28" stop-color="#001A19"/>
<stop offset="0.29" stop-color="#000B0B"/>
<stop offset="0.3" stop-color="#000303"/>
<stop offset="0.32"/>
<stop offset="0.58" stop-color="#5E1717"/>
<stop offset="0.87" stop-color="#C12E2E"/>
<stop offset="1" stop-color="#E83838"/>
</linearGradient>
<linearGradient id="paint8_linear_1640_18589" x1="170.272" y1="319.297" x2="359.203" y2="236.073" gradientUnits="userSpaceOnUse">
<stop/>
<stop offset="0.05" stop-color="#003F3D"/>
<stop offset="0.14" stop-color="#009C96"/>
<stop offset="0.2" stop-color="#00D7CE"/>
<stop offset="0.23" stop-color="#00C1B9"/>
<stop offset="0.24" stop-color="#00948E"/>
<stop offset="0.25" stop-color="#006C68"/>
<stop offset="0.26" stop-color="#004B48"/>
<stop offset="0.27" stop-color="#002F2D"/>
<stop offset="0.28" stop-color="#001A19"/>
<stop offset="0.29" stop-color="#000B0B"/>
<stop offset="0.3" stop-color="#000303"/>
<stop offset="0.32"/>
<stop offset="0.58" stop-color="#5E1717"/>
<stop offset="0.87" stop-color="#C12E2E"/>
<stop offset="1" stop-color="#E83838"/>
</linearGradient>
<linearGradient id="paint9_linear_1640_18589" x1="146.89" y1="313.282" x2="370.94" y2="229.823" gradientUnits="userSpaceOnUse">
<stop/>
<stop offset="0.05" stop-color="#003F3D"/>
<stop offset="0.14" stop-color="#009C96"/>
<stop offset="0.2" stop-color="#00D7CE"/>
<stop offset="0.23" stop-color="#00C1B9"/>
<stop offset="0.24" stop-color="#00948E"/>
<stop offset="0.25" stop-color="#006C68"/>
<stop offset="0.26" stop-color="#004B48"/>
<stop offset="0.27" stop-color="#002F2D"/>
<stop offset="0.28" stop-color="#001A19"/>
<stop offset="0.29" stop-color="#000B0B"/>
<stop offset="0.3" stop-color="#000303"/>
<stop offset="0.32"/>
<stop offset="0.58" stop-color="#5E1717"/>
<stop offset="0.87" stop-color="#C12E2E"/>
<stop offset="1" stop-color="#E83838"/>
</linearGradient>
<linearGradient id="paint10_linear_1640_18589" x1="123.243" y1="305.504" x2="383.035" y2="225.514" gradientUnits="userSpaceOnUse">
<stop/>
<stop offset="0.05" stop-color="#003F3D"/>
<stop offset="0.14" stop-color="#009C96"/>
<stop offset="0.2" stop-color="#00D7CE"/>
<stop offset="0.23" stop-color="#00C1B9"/>
<stop offset="0.24" stop-color="#00948E"/>
<stop offset="0.25" stop-color="#006C68"/>
<stop offset="0.26" stop-color="#004B48"/>
<stop offset="0.27" stop-color="#002F2D"/>
<stop offset="0.28" stop-color="#001A19"/>
<stop offset="0.29" stop-color="#000B0B"/>
<stop offset="0.3" stop-color="#000303"/>
<stop offset="0.32"/>
<stop offset="0.58" stop-color="#5E1717"/>
<stop offset="0.87" stop-color="#C12E2E"/>
<stop offset="1" stop-color="#E83838"/>
</linearGradient>
<linearGradient id="paint11_linear_1640_18589" x1="95.5313" y1="295.801" x2="402.062" y2="223.951" gradientUnits="userSpaceOnUse">
<stop/>
<stop offset="0.05" stop-color="#003F3D"/>
<stop offset="0.14" stop-color="#009C96"/>
<stop offset="0.2" stop-color="#00D7CE"/>
<stop offset="0.23" stop-color="#00C1B9"/>
<stop offset="0.24" stop-color="#00948E"/>
<stop offset="0.25" stop-color="#006C68"/>
<stop offset="0.26" stop-color="#004B48"/>
<stop offset="0.27" stop-color="#002F2D"/>
<stop offset="0.28" stop-color="#001A19"/>
<stop offset="0.29" stop-color="#000B0B"/>
<stop offset="0.3" stop-color="#000303"/>
<stop offset="0.32"/>
<stop offset="0.58" stop-color="#5E1717"/>
<stop offset="0.87" stop-color="#C12E2E"/>
<stop offset="1" stop-color="#E83838"/>
</linearGradient>
<linearGradient id="paint12_linear_1640_18589" x1="68.1505" y1="283.116" x2="431.137" y2="223.359" gradientUnits="userSpaceOnUse">
<stop/>
<stop offset="0.05" stop-color="#003F3D"/>
<stop offset="0.14" stop-color="#009C96"/>
<stop offset="0.2" stop-color="#00D7CE"/>
<stop offset="0.23" stop-color="#00C1B9"/>
<stop offset="0.24" stop-color="#00948E"/>
<stop offset="0.25" stop-color="#006C68"/>
<stop offset="0.26" stop-color="#004B48"/>
<stop offset="0.27" stop-color="#002F2D"/>
<stop offset="0.28" stop-color="#001A19"/>
<stop offset="0.29" stop-color="#000B0B"/>
<stop offset="0.3" stop-color="#000303"/>
<stop offset="0.32"/>
<stop offset="0.58" stop-color="#5E1717"/>
<stop offset="0.87" stop-color="#C12E2E"/>
<stop offset="1" stop-color="#E83838"/>
</linearGradient>
<linearGradient id="paint13_linear_1640_18589" x1="36.8541" y1="268.379" x2="463.15" y2="231.083" gradientUnits="userSpaceOnUse">
<stop/>
<stop offset="0.05" stop-color="#003F3D"/>
<stop offset="0.14" stop-color="#009C96"/>
<stop offset="0.2" stop-color="#00D7CE"/>
<stop offset="0.23" stop-color="#00C1B9"/>
<stop offset="0.24" stop-color="#00948E"/>
<stop offset="0.25" stop-color="#006C68"/>
<stop offset="0.26" stop-color="#004B48"/>
<stop offset="0.27" stop-color="#002F2D"/>
<stop offset="0.28" stop-color="#001A19"/>
<stop offset="0.29" stop-color="#000B0B"/>
<stop offset="0.3" stop-color="#000303"/>
<stop offset="0.32"/>
<stop offset="0.58" stop-color="#5E1717"/>
<stop offset="0.87" stop-color="#C12E2E"/>
<stop offset="1" stop-color="#E83838"/>
</linearGradient>
<linearGradient id="paint14_linear_1640_18589" x1="1.024" y1="249.734" x2="498.976" y2="249.734" gradientUnits="userSpaceOnUse">
<stop/>
<stop offset="0.05" stop-color="#003F3D"/>
<stop offset="0.14" stop-color="#009C96"/>
<stop offset="0.2" stop-color="#00D7CE"/>
<stop offset="0.23" stop-color="#00C1B9"/>
<stop offset="0.24" stop-color="#00948E"/>
<stop offset="0.25" stop-color="#006C68"/>
<stop offset="0.26" stop-color="#004B48"/>
<stop offset="0.27" stop-color="#002F2D"/>
<stop offset="0.28" stop-color="#001A19"/>
<stop offset="0.29" stop-color="#000B0B"/>
<stop offset="0.3" stop-color="#000303"/>
<stop offset="0.32"/>
<stop offset="0.58" stop-color="#5E1717"/>
<stop offset="0.87" stop-color="#C12E2E"/>
<stop offset="1" stop-color="#E83838"/>
</linearGradient>
<clipPath id="clip0_1640_18589">
<rect width="500" height="500" fill="white"/>
</clipPath>
</defs>
</svg>
