<svg width="1720" height="1080" viewBox="0 0 1720 1080" fill="none" xmlns="http://www.w3.org/2000/svg">
<path d="M737.197 586.674C784.248 642.746 752.945 728.725 680.861 741.437L504.877 772.456L328.981 803.476C256.896 816.188 198.088 746.098 223.052 677.297L284.138 509.469L345.224 341.642C370.258 272.788 460.369 256.899 507.419 313.041L622.176 449.849L737.197 586.674Z" stroke="url(#paint0_linear_1640_18607)" stroke-width="1.62425" stroke-miterlimit="10"/>
<path d="M761.316 606.924C807.96 673.554 764.988 765.695 683.97 772.774L486.235 790.076L288.5 807.378C207.465 814.44 149.15 731.179 183.524 657.47L267.491 477.62L351.281 297.752C385.655 224.043 486.941 215.18 533.585 281.863L647.406 444.411L761.316 606.924Z" stroke="url(#paint1_linear_1640_18607)" stroke-width="1.8008" stroke-miterlimit="10"/>
<path d="M786.046 631.676C831.225 709.941 774.747 807.766 684.372 807.766L243.371 807.766C152.995 807.766 96.5174 709.941 141.714 631.677L251.951 440.721L362.206 249.766C407.385 171.502 520.358 171.502 565.537 249.766L675.792 440.721L786.046 631.676Z" stroke="url(#paint2_linear_1640_18607)" stroke-width="1.995" stroke-miterlimit="10"/>
<path d="M811.027 661.478C853.398 752.471 781.455 855.293 681.44 846.536L437.361 825.121L193.3 803.776C93.2677 794.949 40.2324 681.269 97.8226 598.98L238.285 398.385L378.818 197.684C436.461 115.395 561.493 126.376 603.935 217.387L707.481 439.433L811.027 661.478Z" stroke="url(#paint3_linear_1640_18607)" stroke-width="2.22451" stroke-miterlimit="10"/>
<path d="M835.782 696.859C873.863 801.711 784.3 908.541 674.363 889.155L406.345 841.893L138.255 794.614C28.3891 775.193 -19.3144 644.194 52.3997 558.727L227.377 350.205L402.355 141.666C474.069 56.1984 611.424 80.4209 649.523 185.256L742.688 441.057L835.782 696.859Z" stroke="url(#paint4_linear_1640_18607)" stroke-width="2.45403" stroke-miterlimit="10"/>
<path d="M859.737 738.435C891.816 858.188 782.25 967.754 662.514 935.658L370.344 857.376L78.1733 779.095C-41.5621 747.016 -81.6564 597.338 6.0001 509.681L219.907 295.81L433.778 81.8504C521.434 -5.80609 671.112 34.3058 703.191 154.041L781.491 446.282L859.737 738.435Z" stroke="url(#paint5_linear_1640_18607)" stroke-width="2.73651" stroke-miterlimit="10"/>
<path d="M882.286 786.792C906.209 922.435 774.327 1033.1 644.881 985.992L329.088 871.024L13.2778 756.091C-116.15 708.987 -146.057 539.43 -40.5519 450.891L216.909 234.866L474.353 18.8406C579.876 -69.6809 741.665 -10.802 765.57 124.77L823.937 455.816L882.286 786.792Z" stroke="url(#paint6_linear_1640_18607)" stroke-width="3.03664" stroke-miterlimit="10"/>
<path d="M902.534 842.475C915.881 994.925 759.106 1104.65 620.462 1039.98L282.036 882.164L-56.3907 724.347C-195.105 659.677 -211.754 469.11 -86.404 381.33L219.484 167.141L525.373 -47.0302C650.722 -134.81 824.111 -53.9686 837.44 98.4989L869.996 470.487L902.534 842.475Z" stroke="url(#paint7_linear_1640_18607)" stroke-width="3.37208" stroke-miterlimit="10"/>
<path d="M919.552 906.086C919.552 1076.12 735.482 1182.4 588.205 1097.38L228.893 889.932L-130.437 682.47C-277.696 597.444 -277.696 384.897 -130.437 299.871L228.893 92.4438L588.205 -115.036C735.482 -200.062 919.552 -93.8505 919.552 76.2542L919.552 906.033L919.552 906.086Z" stroke="url(#paint8_linear_1640_18607)" stroke-width="3.76049" stroke-miterlimit="10"/>
<path d="M932.228 978.136C915.774 1166.35 701.726 1266.16 546.946 1157.79L169.308 893.357L-208.383 628.94C-363.145 520.575 -342.56 285.288 -171.308 205.435L246.548 10.6135L664.368 -184.226C835.621 -264.061 1029.07 -128.613 1012.59 59.6233L972.411 518.88L932.228 978.136Z" stroke="url(#paint9_linear_1640_18607)" stroke-width="4.16655" stroke-miterlimit="10"/>
<path d="M939.296 1059.1C902.838 1265.86 656.253 1355.6 495.435 1220.59L103.037 891.327L-289.36 562.064C-450.178 427.11 -404.611 168.678 -207.336 96.8754L274.007 -78.3139L755.349 -253.415C952.625 -325.218 1153.64 -156.543 1117.19 50.2487L1028.24 554.649L939.296 1059.1Z" stroke="url(#paint10_linear_1640_18607)" stroke-width="4.62558" stroke-miterlimit="10"/>
<path d="M939.185 1149.42C878.893 1374.73 597.245 1450.1 432.313 1285.26L29.782 882.729L-372.749 480.197C-537.681 315.266 -462.224 33.529 -236.913 -26.7447L312.843 -174.057L862.598 -321.352C1087.91 -381.731 1294.08 -175.558 1233.7 49.7538L1086.57 599.668L939.185 1149.42Z" stroke="url(#paint11_linear_1640_18607)" stroke-width="5.15522" stroke-miterlimit="10"/>
<path d="M930.483 1249.39C841.838 1492.93 522.779 1549.2 356.188 1350.65L-50.2984 866.222L-456.784 381.772C-623.393 183.243 -512.591 -121.198 -257.284 -166.2L365.403 -276.013L988.179 -385.827C1243.42 -430.829 1451.67 -182.654 1363.03 60.8417L1146.77 655.14L930.483 1249.39Z" stroke="url(#paint12_linear_1640_18607)" stroke-width="5.72018" stroke-miterlimit="10"/>
<path d="M893.666 1360.91C771.954 1621.91 413.366 1653.28 248.187 1417.41L-154.839 841.861L-557.865 266.312C-723.044 30.4075 -570.912 -295.819 -284.038 -320.925L415.943 -382.17L1115.98 -443.503C1402.8 -468.59 1609.27 -173.718 1487.58 87.2737L1190.62 724.085L893.666 1360.91Z" stroke="url(#paint13_linear_1640_18607)" stroke-width="6.35576" stroke-miterlimit="10"/>
<path d="M878.966 1478.85C718.978 1756.03 319.024 1756.03 159.036 1478.85L-231.331 802.664L-621.698 126.482C-781.669 -150.611 -581.693 -497 -261.733 -497L1299.73 -497C1619.69 -497 1819.67 -150.611 1659.7 126.482L1269.33 802.717L878.966 1478.85Z" stroke="url(#paint14_linear_1640_18607)" stroke-width="7.06195" stroke-miterlimit="10"/>
<defs>
<linearGradient id="paint0_linear_1640_18607" x1="611.446" y1="336.945" x2="422.995" y2="854.71" gradientUnits="userSpaceOnUse">
<stop/>
<stop offset="0.03" stop-color="#003F3D"/>
<stop offset="0.07" stop-color="#009C96"/>
<stop offset="0.1" stop-color="#00D7CE"/>
<stop offset="0.12" stop-color="#00EEE4"/>
<stop offset="0.13" stop-color="#00C1B9"/>
<stop offset="0.14" stop-color="#00948E"/>
<stop offset="0.16" stop-color="#006C68"/>
<stop offset="0.18" stop-color="#004B48"/>
<stop offset="0.2" stop-color="#002F2D"/>
<stop offset="0.22" stop-color="#001A19"/>
<stop offset="0.24" stop-color="#000B0B"/>
<stop offset="0.26" stop-color="#000303"/>
<stop offset="0.3"/>
<stop offset="0.57" stop-color="#5E1717"/>
<stop offset="0.87" stop-color="#C12E2E"/>
<stop offset="1" stop-color="#E83838"/>
</linearGradient>
<linearGradient id="paint1_linear_1640_18607" x1="651.845" y1="320.861" x2="398.718" y2="863.695" gradientUnits="userSpaceOnUse">
<stop/>
<stop offset="0.03" stop-color="#003F3D"/>
<stop offset="0.07" stop-color="#009C96"/>
<stop offset="0.1" stop-color="#00D7CE"/>
<stop offset="0.12" stop-color="#00EEE4"/>
<stop offset="0.13" stop-color="#00C1B9"/>
<stop offset="0.14" stop-color="#00948E"/>
<stop offset="0.16" stop-color="#006C68"/>
<stop offset="0.18" stop-color="#004B48"/>
<stop offset="0.2" stop-color="#002F2D"/>
<stop offset="0.22" stop-color="#001A19"/>
<stop offset="0.24" stop-color="#000B0B"/>
<stop offset="0.26" stop-color="#000303"/>
<stop offset="0.3"/>
<stop offset="0.57" stop-color="#5E1717"/>
<stop offset="0.87" stop-color="#C12E2E"/>
<stop offset="1" stop-color="#E83838"/>
</linearGradient>
<linearGradient id="paint2_linear_1640_18607" x1="693.204" y1="303.207" x2="357.767" y2="878.242" gradientUnits="userSpaceOnUse">
<stop/>
<stop offset="0.03" stop-color="#003F3D"/>
<stop offset="0.07" stop-color="#009C96"/>
<stop offset="0.1" stop-color="#00D7CE"/>
<stop offset="0.12" stop-color="#00EEE4"/>
<stop offset="0.13" stop-color="#00C1B9"/>
<stop offset="0.14" stop-color="#00948E"/>
<stop offset="0.16" stop-color="#006C68"/>
<stop offset="0.18" stop-color="#004B48"/>
<stop offset="0.2" stop-color="#002F2D"/>
<stop offset="0.22" stop-color="#001A19"/>
<stop offset="0.24" stop-color="#000B0B"/>
<stop offset="0.26" stop-color="#000303"/>
<stop offset="0.3"/>
<stop offset="0.57" stop-color="#5E1717"/>
<stop offset="0.87" stop-color="#C12E2E"/>
<stop offset="1" stop-color="#E83838"/>
</linearGradient>
<linearGradient id="paint3_linear_1640_18607" x1="738.083" y1="289.305" x2="312.014" y2="897.796" gradientUnits="userSpaceOnUse">
<stop/>
<stop offset="0.03" stop-color="#003F3D"/>
<stop offset="0.07" stop-color="#009C96"/>
<stop offset="0.1" stop-color="#00D7CE"/>
<stop offset="0.12" stop-color="#00EEE4"/>
<stop offset="0.13" stop-color="#00C1B9"/>
<stop offset="0.14" stop-color="#00948E"/>
<stop offset="0.16" stop-color="#006C68"/>
<stop offset="0.18" stop-color="#004B48"/>
<stop offset="0.2" stop-color="#002F2D"/>
<stop offset="0.22" stop-color="#001A19"/>
<stop offset="0.24" stop-color="#000B0B"/>
<stop offset="0.26" stop-color="#000303"/>
<stop offset="0.3"/>
<stop offset="0.57" stop-color="#5E1717"/>
<stop offset="0.87" stop-color="#C12E2E"/>
<stop offset="1" stop-color="#E83838"/>
</linearGradient>
<linearGradient id="paint4_linear_1640_18607" x1="784.399" y1="279.379" x2="257.175" y2="926.427" gradientUnits="userSpaceOnUse">
<stop/>
<stop offset="0.03" stop-color="#003F3D"/>
<stop offset="0.07" stop-color="#009C96"/>
<stop offset="0.1" stop-color="#00D7CE"/>
<stop offset="0.12" stop-color="#00EEE4"/>
<stop offset="0.13" stop-color="#00C1B9"/>
<stop offset="0.14" stop-color="#00948E"/>
<stop offset="0.16" stop-color="#006C68"/>
<stop offset="0.18" stop-color="#004B48"/>
<stop offset="0.2" stop-color="#002F2D"/>
<stop offset="0.22" stop-color="#001A19"/>
<stop offset="0.24" stop-color="#000B0B"/>
<stop offset="0.26" stop-color="#000303"/>
<stop offset="0.3"/>
<stop offset="0.57" stop-color="#5E1717"/>
<stop offset="0.87" stop-color="#C12E2E"/>
<stop offset="1" stop-color="#E83838"/>
</linearGradient>
<linearGradient id="paint5_linear_1640_18607" x1="851.616" y1="270.924" x2="204.501" y2="918.038" gradientUnits="userSpaceOnUse">
<stop/>
<stop offset="0.03" stop-color="#003F3D"/>
<stop offset="0.07" stop-color="#009C96"/>
<stop offset="0.1" stop-color="#00D7CE"/>
<stop offset="0.12" stop-color="#00EEE4"/>
<stop offset="0.13" stop-color="#00C1B9"/>
<stop offset="0.14" stop-color="#00948E"/>
<stop offset="0.16" stop-color="#006C68"/>
<stop offset="0.18" stop-color="#004B48"/>
<stop offset="0.2" stop-color="#002F2D"/>
<stop offset="0.22" stop-color="#001A19"/>
<stop offset="0.24" stop-color="#000B0B"/>
<stop offset="0.26" stop-color="#000303"/>
<stop offset="0.3"/>
<stop offset="0.57" stop-color="#5E1717"/>
<stop offset="0.87" stop-color="#C12E2E"/>
<stop offset="1" stop-color="#E83838"/>
</linearGradient>
<linearGradient id="paint6_linear_1640_18607" x1="910.608" y1="263.002" x2="119.585" y2="934.173" gradientUnits="userSpaceOnUse">
<stop/>
<stop offset="0.03" stop-color="#003F3D"/>
<stop offset="0.07" stop-color="#009C96"/>
<stop offset="0.1" stop-color="#00D7CE"/>
<stop offset="0.12" stop-color="#00EEE4"/>
<stop offset="0.13" stop-color="#00C1B9"/>
<stop offset="0.14" stop-color="#00948E"/>
<stop offset="0.16" stop-color="#006C68"/>
<stop offset="0.18" stop-color="#004B48"/>
<stop offset="0.2" stop-color="#002F2D"/>
<stop offset="0.22" stop-color="#001A19"/>
<stop offset="0.24" stop-color="#000B0B"/>
<stop offset="0.26" stop-color="#000303"/>
<stop offset="0.3"/>
<stop offset="0.57" stop-color="#5E1717"/>
<stop offset="0.87" stop-color="#C12E2E"/>
<stop offset="1" stop-color="#E83838"/>
</linearGradient>
<linearGradient id="paint7_linear_1640_18607" x1="987.568" y1="264.524" x2="44.9306" y2="924.566" gradientUnits="userSpaceOnUse">
<stop/>
<stop offset="0.03" stop-color="#003F3D"/>
<stop offset="0.07" stop-color="#009C96"/>
<stop offset="0.1" stop-color="#00D7CE"/>
<stop offset="0.12" stop-color="#00EEE4"/>
<stop offset="0.13" stop-color="#00C1B9"/>
<stop offset="0.14" stop-color="#00948E"/>
<stop offset="0.16" stop-color="#006C68"/>
<stop offset="0.18" stop-color="#004B48"/>
<stop offset="0.2" stop-color="#002F2D"/>
<stop offset="0.22" stop-color="#001A19"/>
<stop offset="0.24" stop-color="#000B0B"/>
<stop offset="0.26" stop-color="#000303"/>
<stop offset="0.3"/>
<stop offset="0.57" stop-color="#5E1717"/>
<stop offset="0.87" stop-color="#C12E2E"/>
<stop offset="1" stop-color="#E83838"/>
</linearGradient>
<linearGradient id="paint8_linear_1640_18607" x1="1071.56" y1="277.696" x2="-28.9842" y2="913.098" gradientUnits="userSpaceOnUse">
<stop/>
<stop offset="0.03" stop-color="#003F3D"/>
<stop offset="0.07" stop-color="#009C96"/>
<stop offset="0.1" stop-color="#00D7CE"/>
<stop offset="0.12" stop-color="#00EEE4"/>
<stop offset="0.13" stop-color="#00C1B9"/>
<stop offset="0.14" stop-color="#00948E"/>
<stop offset="0.16" stop-color="#006C68"/>
<stop offset="0.18" stop-color="#004B48"/>
<stop offset="0.2" stop-color="#002F2D"/>
<stop offset="0.22" stop-color="#001A19"/>
<stop offset="0.24" stop-color="#000B0B"/>
<stop offset="0.26" stop-color="#000303"/>
<stop offset="0.3"/>
<stop offset="0.57" stop-color="#5E1717"/>
<stop offset="0.87" stop-color="#C12E2E"/>
<stop offset="1" stop-color="#E83838"/>
</linearGradient>
<linearGradient id="paint9_linear_1640_18607" x1="1160.94" y1="296.151" x2="-121.408" y2="894.122" gradientUnits="userSpaceOnUse">
<stop/>
<stop offset="0.03" stop-color="#003F3D"/>
<stop offset="0.07" stop-color="#009C96"/>
<stop offset="0.1" stop-color="#00D7CE"/>
<stop offset="0.12" stop-color="#00EEE4"/>
<stop offset="0.13" stop-color="#00C1B9"/>
<stop offset="0.14" stop-color="#00948E"/>
<stop offset="0.16" stop-color="#006C68"/>
<stop offset="0.18" stop-color="#004B48"/>
<stop offset="0.2" stop-color="#002F2D"/>
<stop offset="0.22" stop-color="#001A19"/>
<stop offset="0.24" stop-color="#000B0B"/>
<stop offset="0.26" stop-color="#000303"/>
<stop offset="0.3"/>
<stop offset="0.57" stop-color="#5E1717"/>
<stop offset="0.87" stop-color="#C12E2E"/>
<stop offset="1" stop-color="#E83838"/>
</linearGradient>
<linearGradient id="paint10_linear_1640_18607" x1="1263.23" y1="321.964" x2="-223.914" y2="849.662" gradientUnits="userSpaceOnUse">
<stop/>
<stop offset="0.03" stop-color="#003F3D"/>
<stop offset="0.07" stop-color="#009C96"/>
<stop offset="0.1" stop-color="#00D7CE"/>
<stop offset="0.12" stop-color="#00EEE4"/>
<stop offset="0.13" stop-color="#00C1B9"/>
<stop offset="0.14" stop-color="#00948E"/>
<stop offset="0.16" stop-color="#006C68"/>
<stop offset="0.18" stop-color="#004B48"/>
<stop offset="0.2" stop-color="#002F2D"/>
<stop offset="0.22" stop-color="#001A19"/>
<stop offset="0.24" stop-color="#000B0B"/>
<stop offset="0.26" stop-color="#000303"/>
<stop offset="0.3"/>
<stop offset="0.57" stop-color="#5E1717"/>
<stop offset="0.87" stop-color="#C12E2E"/>
<stop offset="1" stop-color="#E83838"/>
</linearGradient>
<linearGradient id="paint11_linear_1640_18607" x1="1362.26" y1="373.125" x2="-317.15" y2="828.965" gradientUnits="userSpaceOnUse">
<stop/>
<stop offset="0.03" stop-color="#003F3D"/>
<stop offset="0.07" stop-color="#009C96"/>
<stop offset="0.1" stop-color="#00D7CE"/>
<stop offset="0.12" stop-color="#00EEE4"/>
<stop offset="0.13" stop-color="#00C1B9"/>
<stop offset="0.14" stop-color="#00948E"/>
<stop offset="0.16" stop-color="#006C68"/>
<stop offset="0.18" stop-color="#004B48"/>
<stop offset="0.2" stop-color="#002F2D"/>
<stop offset="0.22" stop-color="#001A19"/>
<stop offset="0.24" stop-color="#000B0B"/>
<stop offset="0.26" stop-color="#000303"/>
<stop offset="0.3"/>
<stop offset="0.57" stop-color="#5E1717"/>
<stop offset="0.87" stop-color="#C12E2E"/>
<stop offset="1" stop-color="#E83838"/>
</linearGradient>
<linearGradient id="paint12_linear_1640_18607" x1="1476.83" y1="423.602" x2="-442.946" y2="759.563" gradientUnits="userSpaceOnUse">
<stop/>
<stop offset="0.03" stop-color="#003F3D"/>
<stop offset="0.07" stop-color="#009C96"/>
<stop offset="0.1" stop-color="#00D7CE"/>
<stop offset="0.12" stop-color="#00EEE4"/>
<stop offset="0.13" stop-color="#00C1B9"/>
<stop offset="0.14" stop-color="#00948E"/>
<stop offset="0.16" stop-color="#006C68"/>
<stop offset="0.18" stop-color="#004B48"/>
<stop offset="0.2" stop-color="#002F2D"/>
<stop offset="0.22" stop-color="#001A19"/>
<stop offset="0.24" stop-color="#000B0B"/>
<stop offset="0.26" stop-color="#000303"/>
<stop offset="0.3"/>
<stop offset="0.57" stop-color="#5E1717"/>
<stop offset="0.87" stop-color="#C12E2E"/>
<stop offset="1" stop-color="#E83838"/>
</linearGradient>
<linearGradient id="paint13_linear_1640_18607" x1="1577.65" y1="502.482" x2="-574.455" y2="690.766" gradientUnits="userSpaceOnUse">
<stop/>
<stop offset="0.03" stop-color="#003F3D"/>
<stop offset="0.07" stop-color="#009C96"/>
<stop offset="0.1" stop-color="#00D7CE"/>
<stop offset="0.12" stop-color="#00EEE4"/>
<stop offset="0.13" stop-color="#00C1B9"/>
<stop offset="0.14" stop-color="#00948E"/>
<stop offset="0.16" stop-color="#006C68"/>
<stop offset="0.18" stop-color="#004B48"/>
<stop offset="0.2" stop-color="#002F2D"/>
<stop offset="0.22" stop-color="#001A19"/>
<stop offset="0.24" stop-color="#000B0B"/>
<stop offset="0.26" stop-color="#000303"/>
<stop offset="0.3"/>
<stop offset="0.57" stop-color="#5E1717"/>
<stop offset="0.87" stop-color="#C12E2E"/>
<stop offset="1" stop-color="#E83838"/>
</linearGradient>
<linearGradient id="paint14_linear_1640_18607" x1="1719.53" y1="594.901" x2="-681.531" y2="594.901" gradientUnits="userSpaceOnUse">
<stop/>
<stop offset="0.03" stop-color="#003F3D"/>
<stop offset="0.07" stop-color="#009C96"/>
<stop offset="0.1" stop-color="#00D7CE"/>
<stop offset="0.12" stop-color="#00EEE4"/>
<stop offset="0.13" stop-color="#00C1B9"/>
<stop offset="0.14" stop-color="#00948E"/>
<stop offset="0.16" stop-color="#006C68"/>
<stop offset="0.18" stop-color="#004B48"/>
<stop offset="0.2" stop-color="#002F2D"/>
<stop offset="0.22" stop-color="#001A19"/>
<stop offset="0.24" stop-color="#000B0B"/>
<stop offset="0.26" stop-color="#000303"/>
<stop offset="0.3"/>
<stop offset="0.57" stop-color="#5E1717"/>
<stop offset="0.87" stop-color="#C12E2E"/>
<stop offset="1" stop-color="#E83838"/>
</linearGradient>
</defs>
</svg>
